# Blender v2.93.0 OBJ File: ''
# www.blender.org
mtllib Fire.mtl
o Cube.1925_Cube.8839
v -0.079982 0.000000 0.079982
v -0.079982 0.159964 0.079982
v -0.079982 0.000000 -0.079982
v -0.079982 0.159964 -0.079982
v 0.079982 0.000000 0.079982
v 0.079982 0.159964 0.079982
v 0.079982 0.000000 -0.079982
v 0.079982 0.159964 -0.079982
vt 0.999900 0.999900
vt 0.000100 0.000100
vt 0.999900 0.000100
vt 0.999900 0.999900
vt 0.000100 0.000100
vt 0.999900 0.000100
vt 0.999900 0.999900
vt 0.000100 0.000100
vt 0.999900 0.000100
vt 0.999900 0.999900
vt 0.000100 0.000100
vt 0.999900 0.000100
vt 0.375000 0.754717
vt 0.218750 0.905660
vt 0.218750 0.754717
vt 0.421875 0.754717
vt 0.328125 0.849057
vt 0.328125 0.754717
vt 0.000100 0.999900
vt 0.000100 0.999900
vt 0.000100 0.999900
vt 0.000100 0.999900
vt 0.375000 0.905660
vt 0.421875 0.849057
vn -1.0000 0.0000 0.0000
vn 0.0000 0.0000 -1.0000
vn 1.0000 0.0000 0.0000
vn 0.0000 0.0000 1.0000
vn 0.0000 -1.0000 0.0000
vn 0.0000 1.0000 0.0000
g Cube.1925_Cube.8839_Brick.001
usemtl Brick.001
s off
f 2/1/1 3/2/1 1/3/1
f 4/4/2 7/5/2 3/6/2
f 8/7/3 5/8/3 7/9/3
f 6/10/4 1/11/4 5/12/4
f 7/13/5 1/14/5 3/15/5
f 4/16/6 6/17/6 8/18/6
f 2/1/1 4/19/1 3/2/1
f 4/4/2 8/20/2 7/5/2
f 8/7/3 6/21/3 5/8/3
f 6/10/4 2/22/4 1/11/4
f 7/13/5 5/23/5 1/14/5
f 4/16/6 2/24/6 6/17/6
