# Blender v2.81 (sub 16) OBJ File: 'Map.blend'
# www.blender.org
mtllib Unbreackable_block.mtl
o Cube.3884_Cube.008
v -0.079982 -0.079982 -0.079982
v -0.079982 0.079982 -0.079982
v 0.079982 -0.079982 -0.079982
v 0.079982 0.079982 -0.079982
v -0.079982 -0.079982 0.079982
v -0.079982 0.079982 0.079982
v 0.079982 0.079982 0.079982
v 0.079982 -0.079982 0.079982
vt -0.997649 1.005805
vt -2.995297 -1.005731
vt -0.997648 -1.005731
vt 5.003958 1.001027
vt 3.001979 -1.000952
vt 5.003958 -1.000952
vt 1.000000 -1.000000
vt -1.000000 1.000000
vt -1.000000 -1.000000
vt -3.981824 5.002935
vt -1.985897 3.001730
vt -1.985896 5.002935
vt 1.000000 1.000000
vt -1.000000 -1.000000
vt 1.000000 1.000000
vt -1.000000 -1.000000
vt 1.000000 -1.000000
vt -2.995297 1.005805
vt 3.001979 1.001027
vt 1.000000 1.000000
vt -3.981824 3.001730
vt -1.000000 1.000000
vt -1.000000 1.000000
vn -1.0000 0.0000 0.0000
vn 0.0000 0.0000 -1.0000
vn 0.0000 -1.0000 0.0000
vn 0.0000 1.0000 0.0000
vn 1.0000 0.0000 0.0000
vn 0.0000 0.0000 1.0000
g Cube.3884_Cube.008_GrayBlock
usemtl GrayBlock
s off
f 6/1/1 1/2/1 5/3/1
f 2/4/2 3/5/2 1/6/2
f 3/7/3 5/8/3 1/9/3
f 2/10/4 7/11/4 4/12/4
f 4/13/5 8/14/5 3/7/5
f 7/15/6 5/16/6 8/17/6
f 6/1/1 2/18/1 1/2/1
f 2/4/2 4/19/2 3/5/2
f 3/7/3 8/20/3 5/8/3
f 2/10/4 6/21/4 7/11/4
f 4/13/5 7/22/5 8/14/5
f 7/15/6 6/23/6 5/16/6
